<svg xmlns="http://www.w3.org/2000/svg" xmlns:xlink="http://www.w3.org/1999/xlink" width="70" height="61.429" viewBox="0 0 70 61.429"><defs><style>.a{fill:#fff;}.b{filter:url(#g);}.c{filter:url(#e);}.d{filter:url(#c);}.e{filter:url(#a);}</style><filter id="a" x="1.231" y="19.209" width="67.538" height="42.219" filterUnits="userSpaceOnUse"><feOffset input="SourceAlpha"/><feGaussianBlur stdDeviation="5" result="b"/><feFlood flood-color="#437bc4"/><feComposite operator="in" in2="b"/><feComposite in="SourceGraphic"/></filter><filter id="c" x="0" y="10.134" width="39.989" height="47.242" filterUnits="userSpaceOnUse"><feOffset input="SourceAlpha"/><feGaussianBlur stdDeviation="5" result="d"/><feFlood flood-color="#437bc4"/><feComposite operator="in" in2="d"/><feComposite in="SourceGraphic"/></filter><filter id="e" x="30.015" y="10.134" width="39.985" height="47.243" filterUnits="userSpaceOnUse"><feOffset input="SourceAlpha"/><feGaussianBlur stdDeviation="5" result="f"/><feFlood flood-color="#437bc4"/><feComposite operator="in" in2="f"/><feComposite in="SourceGraphic"/></filter><filter id="g" x="0" y="0" width="70" height="50" filterUnits="userSpaceOnUse"><feOffset input="SourceAlpha"/><feGaussianBlur stdDeviation="5" result="h"/><feFlood flood-color="#437bc4"/><feComposite operator="in" in2="h"/><feComposite in="SourceGraphic"/></filter></defs><g transform="translate(15 -44.013)"><g transform="translate(0 59.013)"><g class="e" transform="matrix(1, 0, 0, 1, -15, -15)"><path class="a" d="M52.144,335.744a3.419,3.419,0,0,0,2.341-.883L43.152,323.528l-.784.564q-1.272.937-2.065,1.462a12.719,12.719,0,0,1-2.109,1.072,6.428,6.428,0,0,1-2.456.547h-.044a6.427,6.427,0,0,1-2.456-.547,12.679,12.679,0,0,1-2.109-1.072q-.793-.524-2.065-1.462c-.236-.173-.5-.363-.782-.567L16.946,334.861a3.42,3.42,0,0,0,2.341.883Z" transform="translate(-0.72 -289.32)"/></g><g class="d" transform="matrix(1, 0, 0, 1, -15, -15)"><path class="a" d="M2.255,200.5A11.835,11.835,0,0,1,0,198.555V215.8l9.989-9.989Q6.991,203.716,2.255,200.5Z" transform="translate(15 -173.42)"/></g><g class="c" transform="matrix(1, 0, 0, 1, -15, -15)"><path class="a" d="M421.062,200.5q-4.561,3.087-7.752,5.316l9.985,9.985V198.555A12.32,12.32,0,0,1,421.062,200.5Z" transform="translate(-368.29 -173.42)"/></g><g class="b" transform="matrix(1, 0, 0, 1, -15, -15)"><path class="a" d="M36.434,59.013H3.577a3.187,3.187,0,0,0-2.645,1.16,4.5,4.5,0,0,0-.926,2.9,5.216,5.216,0,0,0,1.228,3.047A11.074,11.074,0,0,0,3.845,68.7q.759.536,4.576,3.181c1.374.952,2.569,1.782,3.6,2.5.875.61,1.63,1.138,2.253,1.576l.333.237.616.444q.725.525,1.205.848t1.161.725a6.772,6.772,0,0,0,1.284.6,3.552,3.552,0,0,0,1.116.2h.044a3.553,3.553,0,0,0,1.116-.2,6.757,6.757,0,0,0,1.284-.6q.681-.4,1.161-.725t1.205-.848l.615-.443.334-.238L28,74.385q2.776-1.929,8.188-5.685a10.617,10.617,0,0,0,2.723-2.745,5.906,5.906,0,0,0,1.093-3.37,3.6,3.6,0,0,0-3.572-3.572Z" transform="translate(14.99 -44.01)"/></g></g></g></svg>