<svg xmlns="http://www.w3.org/2000/svg" xmlns:xlink="http://www.w3.org/1999/xlink" width="70" height="70" viewBox="0 0 70 70"><defs><style>.a{fill:#fff;}.b{filter:url(#a);}</style><filter id="a" x="0" y="0" width="70" height="70" filterUnits="userSpaceOnUse"><feOffset input="SourceAlpha"/><feGaussianBlur stdDeviation="5" result="b"/><feFlood flood-color="#437bc4"/><feComposite operator="in" in2="b"/><feComposite in="SourceGraphic"/></filter></defs><g class="b" transform="matrix(1, 0, 0, 1, 0, 0)"><path class="a" d="M20,0A20,20,0,1,0,40,20,20.023,20.023,0,0,0,20,0ZM18.828,9.817A27.343,27.343,0,0,1,13.6,9.082c.269-.638.561-1.25.876-1.831C15.764,4.871,17.35,3.2,18.828,2.595Zm0,2.346v6.666h-7.32a29.452,29.452,0,0,1,1.28-7.534A29.674,29.674,0,0,0,18.828,12.162Zm0,9.009v6.666a29.674,29.674,0,0,0-6.04.868,29.452,29.452,0,0,1-1.28-7.534Zm0,9.011v7.222c-1.478-.605-3.065-2.276-4.357-4.657-.315-.58-.607-1.193-.876-1.831a27.34,27.34,0,0,1,5.233-.735Zm2.344,0a27.343,27.343,0,0,1,5.233.735c-.269.638-.561,1.25-.876,1.831-1.292,2.381-2.878,4.052-4.357,4.657Zm0-2.346V21.172h7.32a29.452,29.452,0,0,1-1.28,7.534A29.674,29.674,0,0,0,21.172,27.837Zm0-9.009V12.162a29.673,29.673,0,0,0,6.04-.868,29.452,29.452,0,0,1,1.28,7.534Zm0-9.011V2.595c1.478.605,3.065,2.276,4.357,4.657.315.58.607,1.193.876,1.831a27.343,27.343,0,0,1-5.233.735Zm6.417-3.683a17.792,17.792,0,0,0-1.9-2.848,17.677,17.677,0,0,1,6.251,3.722,22.145,22.145,0,0,1-3.269,1.415A23.745,23.745,0,0,0,27.589,6.134Zm-15.177,0a23.745,23.745,0,0,0-1.085,2.289A22.177,22.177,0,0,1,8.057,7.008a17.677,17.677,0,0,1,6.251-3.722A17.8,17.8,0,0,0,12.411,6.134Zm-1.878,4.492a31.384,31.384,0,0,0-1.371,8.2H2.384A17.574,17.574,0,0,1,6.391,8.763a24.106,24.106,0,0,0,4.143,1.862ZM9.162,21.172a31.382,31.382,0,0,0,1.371,8.2,24.105,24.105,0,0,0-4.143,1.862A17.574,17.574,0,0,1,2.384,21.172Zm2.164,10.406a23.746,23.746,0,0,0,1.085,2.289,17.813,17.813,0,0,0,1.9,2.848,17.673,17.673,0,0,1-6.25-3.722,22.145,22.145,0,0,1,3.269-1.415Zm16.262,2.289a23.745,23.745,0,0,0,1.085-2.289,22.177,22.177,0,0,1,3.269,1.415,17.677,17.677,0,0,1-6.251,3.722A17.8,17.8,0,0,0,27.588,33.866Zm1.878-4.492a31.384,31.384,0,0,0,1.371-8.2h6.779a17.574,17.574,0,0,1-4.007,10.065,24.106,24.106,0,0,0-4.143-1.862Zm1.371-10.547a31.382,31.382,0,0,0-1.371-8.2,24.106,24.106,0,0,0,4.143-1.862,17.574,17.574,0,0,1,4.007,10.065Zm0,0" transform="translate(15 15)"/></g></svg>