<svg xmlns="http://www.w3.org/2000/svg" xmlns:xlink="http://www.w3.org/1999/xlink" width="61.5" height="73.489" viewBox="0 0 61.5 73.489"><defs><style>.a{isolation:isolate;}.b{fill:#fff;}.c{filter:url(#a);}</style><filter id="a" x="0" y="0" width="61.5" height="73.489" filterUnits="userSpaceOnUse"><feOffset input="SourceAlpha"/><feGaussianBlur stdDeviation="5" result="b"/><feFlood flood-color="#437bc4"/><feComposite operator="in" in2="b"/><feComposite in="SourceGraphic"/></filter></defs><g class="a" transform="translate(-55.573 15)"><g transform="translate(70.573)"><g class="c" transform="matrix(1, 0, 0, 1, -15, -15)"><path class="b" d="M86.323,0a15.768,15.768,0,0,0-15.75,15.75c0,10.778,14.095,26.6,14.695,27.268a1.419,1.419,0,0,0,2.11,0c.6-.668,14.695-16.491,14.695-27.268A15.768,15.768,0,0,0,86.323,0Zm0,23.674a7.924,7.924,0,1,1,7.924-7.924A7.933,7.933,0,0,1,86.323,23.674Z" transform="translate(-55.57 15)"/></g></g></g></svg>