<svg xmlns="http://www.w3.org/2000/svg" width="18.766" height="34.709" viewBox="0 0 18.766 34.709"><defs><style>.a{fill:#fff;}</style></defs><path class="a" d="M40.136.007,35.635,0C30.578,0,27.31,3.353,27.31,8.542V12.48H22.785a.708.708,0,0,0-.708.708v5.706a.708.708,0,0,0,.708.708H27.31V34a.707.707,0,0,0,.708.708h5.9A.708.708,0,0,0,34.63,34V19.6h5.291a.708.708,0,0,0,.708-.708l0-5.706a.708.708,0,0,0-.708-.708H34.63V9.142c0-1.6.382-2.419,2.473-2.419h3.032a.708.708,0,0,0,.707-.708V.715A.708.708,0,0,0,40.136.007Z" transform="translate(-22.077)"/></svg>