<svg xmlns="http://www.w3.org/2000/svg" width="34.709" height="34.709" viewBox="0 0 34.709 34.709"><defs><style>.a{fill:#fff;}</style></defs><path class="a" d="M25.131,0H9.578A9.589,9.589,0,0,0,0,9.579V25.131a9.589,9.589,0,0,0,9.578,9.579H25.131a9.589,9.589,0,0,0,9.579-9.579V9.579A9.589,9.589,0,0,0,25.131,0Zm6.5,25.131a6.506,6.506,0,0,1-6.5,6.5H9.578a6.506,6.506,0,0,1-6.5-6.5V9.579a6.506,6.506,0,0,1,6.5-6.5H25.131a6.507,6.507,0,0,1,6.5,6.5V25.131Z"/><path class="a" d="M49.912,40.97a8.944,8.944,0,1,0,8.944,8.944A8.954,8.954,0,0,0,49.912,40.97Zm0,14.807a5.864,5.864,0,1,1,5.864-5.864A5.871,5.871,0,0,1,49.912,55.777Z" transform="translate(-32.557 -32.559)"/><path class="a" d="M121.179,28.251a2.257,2.257,0,1,0,1.6.661A2.267,2.267,0,0,0,121.179,28.251Z" transform="translate(-94.506 -22.451)"/></svg>